# xmcd
#
# Track frame offsets:
# 150
# 17932
# 36180
# 65145
# 83140
# 100640
# 115117
# 134787
# 149642
# 171142
# 201000
# 225432
# 249935
#
# Disc length: 3553 seconds
#
#
# Revision: 5
# Processed by: cddbd v1.5.2PL0 Copyright (c) Steve Scherf et al.
# Submitted via: MAGIX-FreeDB-MP3_Maker_deluxe v2.0beta1 
#
DISCID=b40ddf0d
DTITLE=Charlie Daniels Band - Tailgate Party
DYEAR=1999
DGENRE=Country
TTITLE0=The South's Gonna Do It
TTITLE1=Pride And Joy
TTITLE2=Can't You See
TTITLE3=Let Her Cry
TTITLE4=Homesick
TTITLE5=Keep Your Hands To Yourself
TTITLE6=Statesboro Blues
TTITLE7=Peach Country Jamboree
TTITLE8=Sharp Dressed Man
TTITLE9=Freebird
TTITLE10=The Legend Of Wooley Swamp
TTITLE11=El Toreador
TTITLE12=The Devil Went Down To Georgia
EXTD=YEAR: 1999 ID3G: 2
EXTT0=
EXTT1=
EXTT2=
EXTT3=
EXTT4=
EXTT5=
EXTT6=
EXTT7=
EXTT8=
EXTT9=
EXTT10=
EXTT11=
EXTT12=
PLAYORDER=
